<svg id="Camada_1" data-name="Camada 1" xmlns="http://www.w3.org/2000/svg" viewBox="0 0 1920 1080"><defs><style>.cls-1{fill:#fefefe;}.cls-2{fill:#111;}</style></defs><path class="cls-1" d="M724.45,587.05h-.36v45.74H666V435.29H782.17l23.24,23.24v93.66l-23.24,23.24,23.24,23.23v34.13H747.32V609.92Zm22.87-54.46V493.38H724.09v39.21Z"/><path class="cls-1" d="M819.93,632.79V435.29H959.34v197.5Zm81.32-58.09V493.38H878V574.7Z"/><path class="cls-1" d="M973.86,632.79V435.29H1090l23.24,23.24v58.09L1090,539.85l23.24,23.24v46.46L1090,632.79Zm81.32-116.17V493.38H1032v23.24Zm0,58.08V551.47H1032V574.7Z"/><path class="cls-1" d="M1127.79,632.79V435.29h58.09V574.7h23.23V435.29h58.09v197.5Z"/><path class="cls-1" d="M1281.72,632.79V574.7l34.85-34.85L1281.72,505V435.29h58.09v58.09L1351.42,505,1363,493.38V435.29h58.09V505l-34.85,34.85,34.85,34.85v58.09H1363V586.32l-11.62-11.62-11.61,11.62v46.47Z"/><path class="cls-1" d="M1435.65,632.79V435.29h131.42V489h-73.33v19.61h50.1V555.1h-50.1v23.23h73.33v54.46Z"/><path class="cls-1" d="M1640,587.05h-.36v45.74h-58.09V435.29h116.18L1721,458.53v93.66l-23.23,23.24L1721,598.66v34.13h-58.09V609.92Zm22.87-54.46V493.38h-23.23v39.21Z"/><rect class="cls-1" x="178" y="383.38" width="420" height="277.21"/><polygon class="cls-1" points="598 382.26 388 624.32 178 382.26 405 280 598 382.26"/><polygon class="cls-1" points="598 661.4 388 446.18 178 661.4 386.49 783.92 598 661.4"/><path class="cls-2" d="M367.45,558.43l-.17,61.43-27,9L367.14,669,367,718.13l-27,9L205.34,649.41l.59-208.84,134.66,77.74Zm-67.68,84,.07-24.57-26.93-15.55-.07,24.57,26.93,15.55M300,581l.07-24.57-26.93-15.55L273,565.44,300,581"/><polygon class="cls-2" points="565.02 440.62 565.23 514.19 525.01 574.25 565.44 587.76 565.61 649.07 498.41 687.87 498.27 638.83 484.79 634.33 471.38 654.35 471.52 703.39 404.32 742.19 404.14 680.89 444.36 620.82 403.94 607.31 403.73 533.74 470.93 494.94 471.11 556.25 484.59 560.75 497.99 540.73 497.82 479.42 565.02 440.62"/><path class="cls-2" d="M544.25,422.31l-85.64,49.76-48.17-3.2,5.69,27.89-31.2,18.13L317.6,476l20.91-12.15-5.6-27.46-42.24,24.06L223.34,421.6,403.89,316.67l134.67,77.75Zm-135,.47L445.05,402,418.12,386.4l-35.84,20.83,26.93,15.55"/></svg>