<svg id="Camada_1" data-name="Camada 1" xmlns="http://www.w3.org/2000/svg" viewBox="0 0 1080 1080"><defs><style>.cls-1{fill:#8bf65b;}.cls-2{fill:#111;}</style></defs><rect class="cls-1" x="186.83" y="290.18" width="714.56" height="471.63"/><polygon class="cls-1" points="901.39 288.27 544.11 700.1 186.83 288.27 573.04 114.29 901.39 288.27"/><polygon class="cls-1" points="901.39 763.18 544.11 397.02 186.83 763.18 541.53 971.63 901.39 763.18"/><path class="cls-2" d="M509.16,588l-.3,104.51-45.94,15.34,45.71,68.26-.24,83.6-45.94,15.34L233.34,742.78l1-355.31L463.46,519.75ZM394,730.88l.12-41.81-45.82-26.45-.12,41.8L394,730.88m.3-104.51.12-41.8-45.82-26.45-.12,41.79,45.82,26.46"/><polygon class="cls-2" points="845.29 387.55 845.64 512.73 777.22 614.92 846 637.9 846.3 742.21 731.95 808.22 731.72 724.78 708.79 717.12 685.98 751.18 686.22 834.63 571.88 900.64 571.58 796.33 640.01 694.14 571.23 671.16 570.87 545.99 685.21 479.97 685.51 584.28 708.43 591.95 731.24 557.88 730.95 453.57 845.29 387.55"/><path class="cls-2" d="M810,356.4l-145.7,84.67-82-5.45L592,483.08l-53.09,30.85L424.33,447.79l35.57-20.67-9.52-46.72-71.87,40.94L264,355.2l307.2-178.52L800.27,309Zm-229.76.82,61-35.45-45.82-26.45-61,35.44,45.82,26.46"/></svg>