<svg id="Camada_1" data-name="Camada 1" xmlns="http://www.w3.org/2000/svg" viewBox="0 0 1080 1080"><defs><style>.cls-1{fill:#111;}</style></defs><path class="cls-1" d="M526.16,588l-.3,104.51-45.94,15.34,45.7,68.26-.23,83.6-45.94,15.34L250.34,742.78l1-355.31,229.1,132.28ZM411,730.88l.12-41.81-45.82-26.45-.12,41.8L411,730.88m.3-104.51.12-41.8L365.6,558.12l-.11,41.79,45.82,26.46"/><polygon class="cls-1" points="862.29 387.55 862.64 512.73 794.22 614.92 863 637.9 863.29 742.21 748.95 808.22 748.72 724.78 725.79 717.12 702.98 751.18 703.22 834.63 588.88 900.64 588.58 796.33 657.01 694.14 588.23 671.16 587.87 545.99 702.21 479.97 702.51 584.28 725.43 591.95 748.24 557.88 747.95 453.57 862.29 387.55"/><path class="cls-1" d="M827,356.4,681.26,441.07l-82-5.45L609,483.08l-53.09,30.85L441.34,447.79l35.57-20.67-9.53-46.72-71.87,40.94L281,355.2l307.2-178.53L817.27,309Zm-229.75.82,61-35.45-45.82-26.45-61,35.44,45.83,26.46"/></svg>