<svg id="Camada_1" data-name="Camada 1" xmlns="http://www.w3.org/2000/svg" viewBox="0 0 1080 1080"><defs><style>.cls-1{fill:#111;}.cls-2{fill:#8bf65b;}</style></defs><path class="cls-1" d="M526.16,588l-.3,104.5-45.94,15.34,45.71,68.26-.24,83.6-45.94,15.34L250.34,742.78l1-355.31L480.46,519.75ZM411.31,626.37l.12-41.8-45.82-26.45-.12,41.79,45.82,26.46m-.3,104.5.12-41.8-45.82-26.45-.12,41.79L411,730.87"/><polygon class="cls-2" points="862.29 387.56 862.64 512.72 794.22 614.92 863 637.9 863.3 742.21 748.95 808.22 748.72 724.78 725.79 717.12 702.98 751.18 703.22 834.63 588.88 900.64 588.58 796.33 657.01 694.14 588.23 671.16 587.87 545.99 702.21 479.98 702.51 584.29 725.43 591.94 748.24 557.88 747.95 453.57 862.29 387.56"/><path class="cls-2" d="M826.94,356.4l-145.7,84.67-82-5.45L609,483.07l-53.08,30.85L441.33,447.78l35.57-20.67-9.52-46.71-71.87,40.93L281,355.19l307.2-178.52L817.27,308.94Zm-229.75.81,61-35.44-45.82-26.45-61,35.44,45.82,26.45"/></svg>