<svg id="Camada_1" data-name="Camada 1" xmlns="http://www.w3.org/2000/svg" viewBox="0 0 1920 1080"><defs><style>.cls-1{fill:#fefefe;}.cls-2{fill:#8bf65b;}</style></defs><path class="cls-1" d="M724.45,587.05h-.36v45.74H666V435.29H782.17l23.24,23.24v93.66l-23.24,23.24,23.24,23.23v34.13H747.32V609.92Zm22.87-54.46V493.38H724.09v39.21Z"/><path class="cls-1" d="M819.93,632.79V435.29H959.34v197.5Zm81.32-58.09V493.38H878V574.7Z"/><path class="cls-1" d="M973.86,632.79V435.29H1090l23.24,23.24v58.09L1090,539.85l23.24,23.24v46.46L1090,632.79Zm81.32-116.17V493.38H1032v23.24Zm0,58.08V551.47H1032V574.7Z"/><path class="cls-1" d="M1127.79,632.79V435.29h58.09V574.7h23.23V435.29h58.09v197.5Z"/><path class="cls-1" d="M1281.72,632.79V574.7l34.85-34.85L1281.72,505V435.29h58.09v58.09L1351.42,505,1363,493.38V435.29h58.09V505l-34.85,34.85,34.85,34.85v58.09H1363V586.32l-11.62-11.62-11.61,11.62v46.47Z"/><path class="cls-1" d="M1435.65,632.79V435.29h131.42V489h-73.33v19.61h50.1V555.1h-50.1v23.23h73.33v54.46Z"/><path class="cls-1" d="M1640,587.05h-.36v45.74h-58.09V435.29h116.18L1721,458.53v93.66l-23.23,23.24L1721,598.66v34.13h-58.09V609.92Zm22.87-54.46V493.38h-23.23v39.21Z"/><path class="cls-1" d="M367.46,558.44l-.18,61.42-27,9L367.14,669,367,718.14l-27,9L205.33,649.4l.59-208.83,134.67,77.75ZM300,581l.07-24.57-26.94-15.55L273,565.44,300,581m-.17,61.42.07-24.57-26.94-15.55-.07,24.57,26.94,15.55"/><polygon class="cls-2" points="565.02 440.62 565.23 514.19 525.01 574.26 565.44 587.76 565.62 649.08 498.41 687.88 498.27 638.82 484.79 634.33 471.39 654.35 471.52 703.4 404.32 742.2 404.15 680.89 444.36 620.83 403.94 607.32 403.73 533.74 470.93 494.94 471.11 556.25 484.58 560.76 497.99 540.73 497.82 479.42 565.02 440.62"/><path class="cls-2" d="M550.25,422.31l-85.64,49.76-48.17-3.2,5.69,27.89-31.2,18.14L323.59,476l20.92-12.15-5.61-27.46-42.24,24.06L229.33,421.6,409.89,316.67l134.67,77.75Zm-135,.48L451.05,402,424.12,386.4l-35.85,20.84,26.93,15.55"/></svg>