<svg id="Camada_1" data-name="Camada 1" xmlns="http://www.w3.org/2000/svg" viewBox="0 0 1920 1080"><defs><style>.cls-1{fill:#111;}</style></defs><path class="cls-1" d="M366.13,607.11h-.46V665H292.13V415H439.21l29.42,29.42V563L439.21,592.4l29.42,29.42V665H395.09v-29Zm29-69V488.52H365.67v49.64Z"/><path class="cls-1" d="M487,665V415h176.5V665Zm103-73.55v-103H560.56v103Z"/><path class="cls-1" d="M681.91,665V415H829l29.42,29.42v73.55L829,547.35l29.42,29.42v58.84L829,665Zm103-147.09V488.52H755.45v29.42Zm0,73.54V562.06H755.45v29.42Z"/><path class="cls-1" d="M876.8,665V415h73.55V591.48h29.42V415h73.54V665Z"/><path class="cls-1" d="M1071.7,665V591.48l44.12-44.13-44.12-44.12V415h73.54v73.55L1160,503.23l14.71-14.71V415h73.54v88.26l-44.12,44.12,44.12,44.13V665h-73.54V606.19L1160,591.48l-14.71,14.71V665Z"/><path class="cls-1" d="M1266.59,665V415H1433v68h-92.85v24.82h63.43v58.84h-63.43v29.42H1433V665Z"/><path class="cls-1" d="M1525.37,607.11h-.46V665h-73.54V415h147.09l29.42,29.42V563l-29.42,29.42,29.42,29.42V665h-73.55v-29Zm29-69V488.52h-29.42v49.64Z"/></svg>